<?xml version="1.0" encoding="UTF-8" standalone="no"?>
<!-- Created with Inkscape (http://www.inkscape.org/) -->

<svg
   width="3.7041667mm"
   height="3.7041667mm"
   viewBox="0 0 3.7041667 3.7041667"
   version="1.1"
   id="svg5"
   inkscape:version="1.1.2 (0a00cf5339, 2022-02-04)"
   sodipodi:docname="virtual_machine_icon.svg"
   xmlns:inkscape="http://www.inkscape.org/namespaces/inkscape"
   xmlns:sodipodi="http://sodipodi.sourceforge.net/DTD/sodipodi-0.dtd"
   xmlns="http://www.w3.org/2000/svg"
   xmlns:svg="http://www.w3.org/2000/svg"
   xmlns:rdf="http://www.w3.org/1999/02/22-rdf-syntax-ns#"
   xmlns:cc="http://creativecommons.org/ns#"
   xmlns:dc="http://purl.org/dc/elements/1.1/">
  <title
     id="title2276">Computer</title>
  <sodipodi:namedview
     id="namedview7"
     pagecolor="#ffffff"
     bordercolor="#666666"
     borderopacity="1.0"
     inkscape:pageshadow="2"
     inkscape:pageopacity="0.0"
     inkscape:pagecheckerboard="0"
     inkscape:document-units="mm"
     showgrid="false"
     fit-margin-top="0"
     fit-margin-left="0"
     fit-margin-right="0"
     fit-margin-bottom="0"
     inkscape:zoom="24.794088"
     inkscape:cx="7.0178021"
     inkscape:cy="8.8730831"
     inkscape:window-width="1920"
     inkscape:window-height="1080"
     inkscape:window-x="0"
     inkscape:window-y="0"
     inkscape:window-maximized="1"
     inkscape:current-layer="layer1" />
  <defs
     id="defs2" />
  <g
     inkscape:label="Layer 1"
     inkscape:groupmode="layer"
     id="layer1"
     transform="translate(-103.14791,-146.64791)">
    <path
       d="m 106.38739,149.38363 h -2.77487 c -0.25089,0 -0.45487,-0.20409 -0.45487,-0.45489 l 2e-5,-1.82586 c 0,-0.2508 0.20396,-0.45489 0.45485,-0.45489 h 2.77487 c 0.25074,0 0.45486,0.20409 0.45486,0.45489 v 1.82586 c -2e-5,0.25086 -0.20412,0.45489 -0.45486,0.45489 z m -2.77487,-2.49834 c -0.12003,0 -0.21765,0.0976 -0.21765,0.21759 v 1.82587 c 0,0.12001 0.0976,0.21767 0.21765,0.21767 h 2.77487 c 0.12004,0 0.21765,-0.0977 0.21765,-0.21767 v -1.82587 c 0,-0.12002 -0.0976,-0.21759 -0.21765,-0.21759 z m 2.66573,0.45351 c 0,-0.13768 -0.11167,-0.24935 -0.24932,-0.24935 h -2.05782 c -0.13764,0 -0.24939,0.11172 -0.24939,0.24935 v 1.354 c 0,0.13771 0.11175,0.24938 0.24939,0.24938 h 2.05782 c 0.13768,0 0.24932,-0.11172 0.24932,-0.24938 z m 0.15487,3.01319 h -2.86622 c -0.22561,0 -0.40918,-0.18352 -0.40918,-0.40917 0,-0.22561 0.18357,-0.40911 0.40918,-0.40911 h 2.86628 c 0.22563,0 0.40915,0.18349 0.40915,0.40911 -7e-5,0.22565 -0.18357,0.40917 -0.4092,0.40917 z"
       id="path1114"
       style="fill:#e0e0e0;fill-opacity:1;stroke:none;stroke-width:0.00661427;stroke-opacity:0.996078" />
  </g>
  <metadata
     id="metadata2272">
    <rdf:RDF>
      <cc:License
         rdf:about="http://creativecommons.org/licenses/by/4.0/">
        <cc:permits
           rdf:resource="http://creativecommons.org/ns#Reproduction" />
        <cc:permits
           rdf:resource="http://creativecommons.org/ns#Distribution" />
        <cc:requires
           rdf:resource="http://creativecommons.org/ns#Notice" />
        <cc:requires
           rdf:resource="http://creativecommons.org/ns#Attribution" />
        <cc:permits
           rdf:resource="http://creativecommons.org/ns#DerivativeWorks" />
      </cc:License>
      <cc:Work
         rdf:about="">
        <cc:license
           rdf:resource="http://creativecommons.org/licenses/by/4.0/" />
        <dc:source>https://thenounproject.com/icon/computer-1013970/</dc:source>
        <dc:publisher>
          <cc:Agent>
            <dc:title>Noun Project</dc:title>
          </cc:Agent>
        </dc:publisher>
        <dc:rights>
          <cc:Agent>
            <dc:title>CC-BY-3.0</dc:title>
          </cc:Agent>
        </dc:rights>
        <dc:creator>
          <cc:Agent>
            <dc:title>b farias</dc:title>
          </cc:Agent>
        </dc:creator>
        <dc:title>Computer</dc:title>
        <dc:date>2017</dc:date>
      </cc:Work>
    </rdf:RDF>
  </metadata>
</svg>
